<?xml version="1.0" encoding="UTF-8" standalone="no"?>
<!DOCTYPE svg PUBLIC "-//W3C//DTD SVG 1.1//EN"
 "http://www.w3.org/Graphics/SVG/1.1/DTD/svg11.dtd">
<!-- Generated by graphviz version 2.43.0 (0)
 -->
<!-- Title: G Pages: 1 -->
<svg width="327pt" height="348pt"
 viewBox="0.00 0.00 327.45 348.24" xmlns="http://www.w3.org/2000/svg" xmlns:xlink="http://www.w3.org/1999/xlink">
<g id="graph0" class="graph" transform="scale(1 1) rotate(0) translate(4 344.24)">
<title>G</title>
<polygon fill="white" stroke="transparent" points="-4,4 -4,-344.24 323.45,-344.24 323.45,4 -4,4"/>
<!-- system.caches.network.ext_links0.int_node -->
<g id="node1" class="node">
<title>system.caches.network.ext_links0.int_node</title>
<path fill="#cce6fc" stroke="#000000" d="M66.35,-64.14C66.35,-64.14 96.35,-64.14 96.35,-64.14 102.35,-64.14 108.35,-70.14 108.35,-76.14 108.35,-76.14 108.35,-88.14 108.35,-88.14 108.35,-94.14 102.35,-100.14 96.35,-100.14 96.35,-100.14 66.35,-100.14 66.35,-100.14 60.35,-100.14 54.35,-94.14 54.35,-88.14 54.35,-88.14 54.35,-76.14 54.35,-76.14 54.35,-70.14 60.35,-64.14 66.35,-64.14"/>
<text text-anchor="middle" x="81.35" y="-78.44" font-family="Arial" font-size="14.00" fill="#000000">R 0</text>
</g>
<!-- system.caches.network.ext_links1.int_node -->
<g id="node2" class="node">
<title>system.caches.network.ext_links1.int_node</title>
<path fill="#cce6fc" stroke="#000000" d="M104.74,-139.86C104.74,-139.86 134.74,-139.86 134.74,-139.86 140.74,-139.86 146.74,-145.86 146.74,-151.86 146.74,-151.86 146.74,-163.86 146.74,-163.86 146.74,-169.86 140.74,-175.86 134.74,-175.86 134.74,-175.86 104.74,-175.86 104.74,-175.86 98.74,-175.86 92.74,-169.86 92.74,-163.86 92.74,-163.86 92.74,-151.86 92.74,-151.86 92.74,-145.86 98.74,-139.86 104.74,-139.86"/>
<text text-anchor="middle" x="119.74" y="-154.16" font-family="Arial" font-size="14.00" fill="#000000">R 1</text>
</g>
<!-- system.caches.network.ext_links1.int_node&#45;&#45;system.caches.network.ext_links0.int_node -->
<g id="edge65" class="edge">
<title>system.caches.network.ext_links1.int_node&#45;&#45;system.caches.network.ext_links0.int_node</title>
<path fill="none" stroke="#042d50" d="M110.45,-139.53C105.88,-130.5 100.27,-119.44 95.2,-109.45"/>
<polygon fill="#042d50" stroke="#042d50" points="98.2,-107.63 90.56,-100.3 91.96,-110.8 98.2,-107.63"/>
</g>
<!-- system.caches.network.ext_links2.int_node -->
<g id="node3" class="node">
<title>system.caches.network.ext_links2.int_node</title>
<path fill="#cce6fc" stroke="#000000" d="M185.83,-160.48C185.83,-160.48 215.83,-160.48 215.83,-160.48 221.83,-160.48 227.83,-166.48 227.83,-172.48 227.83,-172.48 227.83,-184.48 227.83,-184.48 227.83,-190.48 221.83,-196.48 215.83,-196.48 215.83,-196.48 185.83,-196.48 185.83,-196.48 179.83,-196.48 173.83,-190.48 173.83,-184.48 173.83,-184.48 173.83,-172.48 173.83,-172.48 173.83,-166.48 179.83,-160.48 185.83,-160.48"/>
<text text-anchor="middle" x="200.83" y="-174.78" font-family="Arial" font-size="14.00" fill="#000000">R 2</text>
</g>
<!-- system.caches.network.ext_links1.int_node&#45;&#45;system.caches.network.ext_links2.int_node -->
<g id="edge1" class="edge">
<title>system.caches.network.ext_links1.int_node&#45;&#45;system.caches.network.ext_links2.int_node</title>
<path fill="none" stroke="#042d50" d="M146.75,-164.72C152.16,-166.1 157.94,-167.57 163.63,-169.02"/>
<polygon fill="#042d50" stroke="#042d50" points="163.12,-172.5 173.67,-171.57 164.85,-165.72 163.12,-172.5"/>
</g>
<!-- system.caches.network.ext_links3.int_node -->
<g id="node4" class="node">
<title>system.caches.network.ext_links3.int_node</title>
<path fill="#cce6fc" stroke="#000000" d="M185.6,-194.3C185.6,-194.3 215.6,-194.3 215.6,-194.3 221.6,-194.3 227.6,-200.3 227.6,-206.3 227.6,-206.3 227.6,-218.3 227.6,-218.3 227.6,-224.3 221.6,-230.3 215.6,-230.3 215.6,-230.3 185.6,-230.3 185.6,-230.3 179.6,-230.3 173.6,-224.3 173.6,-218.3 173.6,-218.3 173.6,-206.3 173.6,-206.3 173.6,-200.3 179.6,-194.3 185.6,-194.3"/>
<text text-anchor="middle" x="200.6" y="-208.6" font-family="Arial" font-size="14.00" fill="#000000">R 3</text>
</g>
<!-- system.caches.network.ext_links1.int_node&#45;&#45;system.caches.network.ext_links3.int_node -->
<g id="edge2" class="edge">
<title>system.caches.network.ext_links1.int_node&#45;&#45;system.caches.network.ext_links3.int_node</title>
<path fill="none" stroke="#042d50" d="M136.04,-175.91C144.33,-182.47 154.74,-189.77 164.76,-196.15"/>
<polygon fill="#042d50" stroke="#042d50" points="163.07,-199.22 173.42,-201.48 166.74,-193.26 163.07,-199.22"/>
</g>
<!-- system.caches.network.ext_links4.int_node -->
<g id="node5" class="node">
<title>system.caches.network.ext_links4.int_node</title>
<path fill="#cce6fc" stroke="#000000" d="M157.59,-197.04C157.59,-197.04 187.59,-197.04 187.59,-197.04 193.59,-197.04 199.59,-203.04 199.59,-209.04 199.59,-209.04 199.59,-221.04 199.59,-221.04 199.59,-227.04 193.59,-233.04 187.59,-233.04 187.59,-233.04 157.59,-233.04 157.59,-233.04 151.59,-233.04 145.59,-227.04 145.59,-221.04 145.59,-221.04 145.59,-209.04 145.59,-209.04 145.59,-203.04 151.59,-197.04 157.59,-197.04"/>
<text text-anchor="middle" x="172.59" y="-211.34" font-family="Arial" font-size="14.00" fill="#000000">R 4</text>
</g>
<!-- system.caches.network.ext_links1.int_node&#45;&#45;system.caches.network.ext_links4.int_node -->
<g id="edge3" class="edge">
<title>system.caches.network.ext_links1.int_node&#45;&#45;system.caches.network.ext_links4.int_node</title>
<path fill="none" stroke="#042d50" d="M128.46,-176.01C131.71,-180.24 135.56,-184.81 139.62,-189.29"/>
<polygon fill="#042d50" stroke="#042d50" points="137.18,-191.8 146.59,-196.66 142.26,-186.99 137.18,-191.8"/>
</g>
<!-- system.caches.network.ext_links5.int_node -->
<g id="node6" class="node">
<title>system.caches.network.ext_links5.int_node</title>
<path fill="#cce6fc" stroke="#000000" d="M139.72,-131.97C139.72,-131.97 169.72,-131.97 169.72,-131.97 175.72,-131.97 181.72,-137.97 181.72,-143.97 181.72,-143.97 181.72,-155.97 181.72,-155.97 181.72,-161.97 175.72,-167.97 169.72,-167.97 169.72,-167.97 139.72,-167.97 139.72,-167.97 133.72,-167.97 127.72,-161.97 127.72,-155.97 127.72,-155.97 127.72,-143.97 127.72,-143.97 127.72,-137.97 133.72,-131.97 139.72,-131.97"/>
<text text-anchor="middle" x="154.72" y="-146.27" font-family="Arial" font-size="14.00" fill="#000000">R 5</text>
</g>
<!-- system.caches.network.ext_links1.int_node&#45;&#45;system.caches.network.ext_links5.int_node -->
<g id="edge4" class="edge">
<title>system.caches.network.ext_links1.int_node&#45;&#45;system.caches.network.ext_links5.int_node</title>
<path fill="none" stroke="#042d50" d="M146.85,-157.92C146.93,-157.88 147.01,-157.85 147.09,-157.81"/>
<polygon fill="#042d50" stroke="#042d50" points="139.58,-164.95 147.32,-157.71 136.76,-158.55 139.58,-164.95"/>
</g>
<!-- system.caches.network.ext_links6.int_node -->
<g id="node7" class="node">
<title>system.caches.network.ext_links6.int_node</title>
<path fill="#cce6fc" stroke="#000000" d="M168.02,-136.39C168.02,-136.39 198.02,-136.39 198.02,-136.39 204.02,-136.39 210.02,-142.39 210.02,-148.39 210.02,-148.39 210.02,-160.39 210.02,-160.39 210.02,-166.39 204.02,-172.39 198.02,-172.39 198.02,-172.39 168.02,-172.39 168.02,-172.39 162.02,-172.39 156.02,-166.39 156.02,-160.39 156.02,-160.39 156.02,-148.39 156.02,-148.39 156.02,-142.39 162.02,-136.39 168.02,-136.39"/>
<text text-anchor="middle" x="183.02" y="-150.69" font-family="Arial" font-size="14.00" fill="#000000">R 6</text>
</g>
<!-- system.caches.network.ext_links1.int_node&#45;&#45;system.caches.network.ext_links6.int_node -->
<g id="edge5" class="edge">
<title>system.caches.network.ext_links1.int_node&#45;&#45;system.caches.network.ext_links6.int_node</title>
<path fill="none" stroke="#042d50" d="M146.94,-163.06C147.04,-163.05 147.13,-163.05 147.22,-163.05"/>
<polygon fill="#042d50" stroke="#042d50" points="146.1,-166.61 155.9,-162.58 145.73,-159.62 146.1,-166.61"/>
</g>
<!-- system.caches.network.ext_links7.int_node -->
<g id="node8" class="node">
<title>system.caches.network.ext_links7.int_node</title>
<path fill="#cce6fc" stroke="#000000" d="M140.23,-219.72C140.23,-219.72 170.23,-219.72 170.23,-219.72 176.23,-219.72 182.23,-225.72 182.23,-231.72 182.23,-231.72 182.23,-243.72 182.23,-243.72 182.23,-249.72 176.23,-255.72 170.23,-255.72 170.23,-255.72 140.23,-255.72 140.23,-255.72 134.23,-255.72 128.23,-249.72 128.23,-243.72 128.23,-243.72 128.23,-231.72 128.23,-231.72 128.23,-225.72 134.23,-219.72 140.23,-219.72"/>
<text text-anchor="middle" x="155.23" y="-234.02" font-family="Arial" font-size="14.00" fill="#000000">R 7</text>
</g>
<!-- system.caches.network.ext_links1.int_node&#45;&#45;system.caches.network.ext_links7.int_node -->
<g id="edge6" class="edge">
<title>system.caches.network.ext_links1.int_node&#45;&#45;system.caches.network.ext_links7.int_node</title>
<path fill="none" stroke="#042d50" d="M121.73,-175.87C124.99,-186.07 130.36,-199.01 135.92,-210.42"/>
<polygon fill="#042d50" stroke="#042d50" points="132.93,-212.26 140.6,-219.56 139.16,-209.06 132.93,-212.26"/>
</g>
<!-- system.caches.network.ext_links8.int_node -->
<g id="node9" class="node">
<title>system.caches.network.ext_links8.int_node</title>
<path fill="#cce6fc" stroke="#000000" d="M102.85,-175.17C102.85,-175.17 132.85,-175.17 132.85,-175.17 138.85,-175.17 144.85,-181.17 144.85,-187.17 144.85,-187.17 144.85,-199.17 144.85,-199.17 144.85,-205.17 138.85,-211.17 132.85,-211.17 132.85,-211.17 102.85,-211.17 102.85,-211.17 96.85,-211.17 90.85,-205.17 90.85,-199.17 90.85,-199.17 90.85,-187.17 90.85,-187.17 90.85,-181.17 96.85,-175.17 102.85,-175.17"/>
<text text-anchor="middle" x="117.85" y="-189.47" font-family="Arial" font-size="14.00" fill="#000000">R 8</text>
</g>
<!-- system.caches.network.ext_links1.int_node&#45;&#45;system.caches.network.ext_links8.int_node -->
<g id="edge7" class="edge">
<title>system.caches.network.ext_links1.int_node&#45;&#45;system.caches.network.ext_links8.int_node</title>
<path fill="none" stroke="#042d50" d="M112.02,-175.98C112.02,-176.05 112.02,-176.11 112.01,-176.18"/>
<polygon fill="#042d50" stroke="#042d50" points="108.83,-166.27 112.01,-176.38 115.83,-166.5 108.83,-166.27"/>
</g>
<!-- system.caches.network.ext_links9.int_node -->
<g id="node10" class="node">
<title>system.caches.network.ext_links9.int_node</title>
<path fill="#cce6fc" stroke="#000000" d="M111.29,-203.02C111.29,-203.02 141.29,-203.02 141.29,-203.02 147.29,-203.02 153.29,-209.02 153.29,-215.02 153.29,-215.02 153.29,-227.02 153.29,-227.02 153.29,-233.02 147.29,-239.02 141.29,-239.02 141.29,-239.02 111.29,-239.02 111.29,-239.02 105.29,-239.02 99.29,-233.02 99.29,-227.02 99.29,-227.02 99.29,-215.02 99.29,-215.02 99.29,-209.02 105.29,-203.02 111.29,-203.02"/>
<text text-anchor="middle" x="126.29" y="-217.32" font-family="Arial" font-size="14.00" fill="#000000">R 9</text>
</g>
<!-- system.caches.network.ext_links1.int_node&#45;&#45;system.caches.network.ext_links9.int_node -->
<g id="edge8" class="edge">
<title>system.caches.network.ext_links1.int_node&#45;&#45;system.caches.network.ext_links9.int_node</title>
<path fill="none" stroke="#042d50" d="M115.48,-176.08C115.52,-181.33 115.93,-187.19 116.61,-192.89"/>
<polygon fill="#042d50" stroke="#042d50" points="113.16,-193.48 118.14,-202.83 120.08,-192.42 113.16,-193.48"/>
</g>
<!-- system.caches.network.ext_links2.int_node&#45;&#45;system.caches.network.ext_links3.int_node -->
<g id="edge9" class="edge">
<title>system.caches.network.ext_links2.int_node&#45;&#45;system.caches.network.ext_links3.int_node</title>
<path fill="none" stroke="#042d50" d="M200.71,-196.58C200.71,-196.64 200.71,-196.7 200.71,-196.77"/>
<polygon fill="#042d50" stroke="#042d50" points="197.28,-186.93 200.71,-196.95 204.28,-186.98 197.28,-186.93"/>
</g>
<!-- system.caches.network.ext_links2.int_node&#45;&#45;system.caches.network.ext_links4.int_node -->
<g id="edge10" class="edge">
<title>system.caches.network.ext_links2.int_node&#45;&#45;system.caches.network.ext_links4.int_node</title>
<path fill="none" stroke="#042d50" d="M178.52,-196.55C178.48,-196.61 178.43,-196.67 178.39,-196.73"/>
<polygon fill="#042d50" stroke="#042d50" points="181,-186.68 178.26,-196.92 186.79,-190.63 181,-186.68"/>
</g>
<!-- system.caches.network.ext_links2.int_node&#45;&#45;system.caches.network.ext_links5.int_node -->
<g id="edge11" class="edge">
<title>system.caches.network.ext_links2.int_node&#45;&#45;system.caches.network.ext_links5.int_node</title>
<path fill="none" stroke="#042d50" d="M184.26,-160.36C184.17,-160.3 184.07,-160.23 183.98,-160.17"/>
<polygon fill="#042d50" stroke="#042d50" points="192.26,-161.32 181.95,-158.87 188.48,-167.21 192.26,-161.32"/>
</g>
<!-- system.caches.network.ext_links2.int_node&#45;&#45;system.caches.network.ext_links6.int_node -->
<g id="edge12" class="edge">
<title>system.caches.network.ext_links2.int_node&#45;&#45;system.caches.network.ext_links6.int_node</title>
<path fill="none" stroke="#042d50" d="M195.61,-160.24C195.54,-160.16 195.48,-160.09 195.41,-160.01"/>
<polygon fill="#042d50" stroke="#042d50" points="204.46,-164.94 195.21,-159.78 199.23,-169.59 204.46,-164.94"/>
</g>
<!-- system.caches.network.ext_links2.int_node&#45;&#45;system.caches.network.ext_links7.int_node -->
<g id="edge13" class="edge">
<title>system.caches.network.ext_links2.int_node&#45;&#45;system.caches.network.ext_links7.int_node</title>
<path fill="none" stroke="#042d50" d="M178.66,-196.55C174.85,-201.08 171.03,-206.03 167.58,-210.88"/>
<polygon fill="#042d50" stroke="#042d50" points="164.52,-209.15 161.86,-219.4 170.34,-213.05 164.52,-209.15"/>
</g>
<!-- system.caches.network.ext_links2.int_node&#45;&#45;system.caches.network.ext_links8.int_node -->
<g id="edge14" class="edge">
<title>system.caches.network.ext_links2.int_node&#45;&#45;system.caches.network.ext_links8.int_node</title>
<path fill="none" stroke="#042d50" d="M173.48,-176.9C167.64,-177.59 161.38,-178.56 155.24,-179.71"/>
<polygon fill="#042d50" stroke="#042d50" points="154.2,-176.35 145.12,-181.8 155.62,-183.21 154.2,-176.35"/>
</g>
<!-- system.caches.network.ext_links2.int_node&#45;&#45;system.caches.network.ext_links9.int_node -->
<g id="edge15" class="edge">
<title>system.caches.network.ext_links2.int_node&#45;&#45;system.caches.network.ext_links9.int_node</title>
<path fill="none" stroke="#042d50" d="M173.69,-186.66C167.44,-189.79 160.78,-193.46 154.49,-197.24"/>
<polygon fill="#042d50" stroke="#042d50" points="152.24,-194.52 145.62,-202.79 155.96,-200.45 152.24,-194.52"/>
</g>
<!-- system.caches.network.ext_links3.int_node&#45;&#45;system.caches.network.ext_links1.int_node -->
<g id="edge16" class="edge">
<title>system.caches.network.ext_links3.int_node&#45;&#45;system.caches.network.ext_links1.int_node</title>
<path fill="none" stroke="#042d50" d="M184.31,-194.24C176.01,-187.69 165.61,-180.38 155.58,-174"/>
<polygon fill="#042d50" stroke="#042d50" points="157.28,-170.94 146.93,-168.67 153.61,-176.9 157.28,-170.94"/>
</g>
<!-- system.caches.network.ext_links3.int_node&#45;&#45;system.caches.network.ext_links4.int_node -->
<g id="edge17" class="edge">
<title>system.caches.network.ext_links3.int_node&#45;&#45;system.caches.network.ext_links4.int_node</title>
<path fill="none" stroke="#042d50" d="M173.29,-214.97C173.17,-214.98 173.08,-214.99 172.99,-215"/>
<polygon fill="#042d50" stroke="#042d50" points="182.38,-210.56 172.77,-215.02 183.07,-217.53 182.38,-210.56"/>
</g>
<!-- system.caches.network.ext_links3.int_node&#45;&#45;system.caches.network.ext_links5.int_node -->
<g id="edge18" class="edge">
<title>system.caches.network.ext_links3.int_node&#45;&#45;system.caches.network.ext_links5.int_node</title>
<path fill="none" stroke="#042d50" d="M194.43,-194.06C191.09,-188.44 186.83,-182.14 182.33,-176.1"/>
<polygon fill="#042d50" stroke="#042d50" points="185.02,-173.86 176.12,-168.11 179.5,-178.16 185.02,-173.86"/>
</g>
<!-- system.caches.network.ext_links3.int_node&#45;&#45;system.caches.network.ext_links6.int_node -->
<g id="edge19" class="edge">
<title>system.caches.network.ext_links3.int_node&#45;&#45;system.caches.network.ext_links6.int_node</title>
<path fill="none" stroke="#042d50" d="M201.5,-194.07C200.74,-190.31 199.72,-186.26 198.53,-182.24"/>
<polygon fill="#042d50" stroke="#042d50" points="201.76,-180.86 195.26,-172.49 195.12,-183.09 201.76,-180.86"/>
</g>
<!-- system.caches.network.ext_links3.int_node&#45;&#45;system.caches.network.ext_links7.int_node -->
<g id="edge20" class="edge">
<title>system.caches.network.ext_links3.int_node&#45;&#45;system.caches.network.ext_links7.int_node</title>
<path fill="none" stroke="#042d50" d="M173.56,-219.72C173.51,-219.75 173.47,-219.77 173.43,-219.8"/>
<polygon fill="#042d50" stroke="#042d50" points="180.21,-211.84 173.3,-219.87 183.71,-217.9 180.21,-211.84"/>
</g>
<!-- system.caches.network.ext_links3.int_node&#45;&#45;system.caches.network.ext_links8.int_node -->
<g id="edge21" class="edge">
<title>system.caches.network.ext_links3.int_node&#45;&#45;system.caches.network.ext_links8.int_node</title>
<path fill="none" stroke="#042d50" d="M173.58,-199.43C167.71,-197.78 161.41,-196.24 155.22,-194.93"/>
<polygon fill="#042d50" stroke="#042d50" points="155.51,-191.42 145.03,-192.98 154.19,-198.3 155.51,-191.42"/>
</g>
<!-- system.caches.network.ext_links3.int_node&#45;&#45;system.caches.network.ext_links9.int_node -->
<g id="edge22" class="edge">
<title>system.caches.network.ext_links3.int_node&#45;&#45;system.caches.network.ext_links9.int_node</title>
<path fill="none" stroke="#042d50" d="M173.44,-208.95C170.16,-209.17 166.78,-209.48 163.4,-209.87"/>
<polygon fill="#042d50" stroke="#042d50" points="162.79,-206.42 153.36,-211.24 163.74,-213.35 162.79,-206.42"/>
</g>
<!-- system.caches.network.ext_links4.int_node&#45;&#45;system.caches.network.ext_links1.int_node -->
<g id="edge23" class="edge">
<title>system.caches.network.ext_links4.int_node&#45;&#45;system.caches.network.ext_links1.int_node</title>
<path fill="none" stroke="#042d50" d="M163.87,-196.89C160.63,-192.66 156.78,-188.08 152.72,-183.6"/>
<polygon fill="#042d50" stroke="#042d50" points="155.16,-181.1 145.75,-176.23 150.07,-185.9 155.16,-181.1"/>
</g>
<!-- system.caches.network.ext_links4.int_node&#45;&#45;system.caches.network.ext_links2.int_node -->
<g id="edge24" class="edge">
<title>system.caches.network.ext_links4.int_node&#45;&#45;system.caches.network.ext_links2.int_node</title>
<path fill="none" stroke="#042d50" d="M194.91,-196.98C194.95,-196.91 195,-196.85 195.04,-196.79"/>
<polygon fill="#042d50" stroke="#042d50" points="192.43,-206.84 195.17,-196.6 186.64,-202.9 192.43,-206.84"/>
</g>
<!-- system.caches.network.ext_links4.int_node&#45;&#45;system.caches.network.ext_links5.int_node -->
<g id="edge25" class="edge">
<title>system.caches.network.ext_links4.int_node&#45;&#45;system.caches.network.ext_links5.int_node</title>
<path fill="none" stroke="#042d50" d="M167.61,-196.91C165.99,-190.99 164.14,-184.27 162.36,-177.8"/>
<polygon fill="#042d50" stroke="#042d50" points="165.69,-176.71 159.67,-168 158.94,-178.57 165.69,-176.71"/>
</g>
<!-- system.caches.network.ext_links4.int_node&#45;&#45;system.caches.network.ext_links6.int_node -->
<g id="edge26" class="edge">
<title>system.caches.network.ext_links4.int_node&#45;&#45;system.caches.network.ext_links6.int_node</title>
<path fill="none" stroke="#042d50" d="M182.13,-196.92C183.25,-192.49 184.22,-187.64 184.95,-182.85"/>
<polygon fill="#042d50" stroke="#042d50" points="188.45,-182.99 186.13,-172.65 181.5,-182.18 188.45,-182.99"/>
</g>
<!-- system.caches.network.ext_links4.int_node&#45;&#45;system.caches.network.ext_links7.int_node -->
<g id="edge27" class="edge">
<title>system.caches.network.ext_links4.int_node&#45;&#45;system.caches.network.ext_links7.int_node</title>
<path fill="none" stroke="#042d50" d="M153.57,-233.13C153.56,-233.19 153.56,-233.25 153.55,-233.31"/>
<polygon fill="#042d50" stroke="#042d50" points="150.55,-223.32 153.54,-233.49 157.54,-223.68 150.55,-223.32"/>
</g>
<!-- system.caches.network.ext_links4.int_node&#45;&#45;system.caches.network.ext_links8.int_node -->
<g id="edge28" class="edge">
<title>system.caches.network.ext_links4.int_node&#45;&#45;system.caches.network.ext_links8.int_node</title>
<path fill="none" stroke="#042d50" d="M145.48,-196.96C145.38,-196.92 145.28,-196.88 145.17,-196.84"/>
<polygon fill="#042d50" stroke="#042d50" points="155.46,-196.98 144.87,-196.73 153,-203.53 155.46,-196.98"/>
</g>
<!-- system.caches.network.ext_links4.int_node&#45;&#45;system.caches.network.ext_links9.int_node -->
<g id="edge29" class="edge">
<title>system.caches.network.ext_links4.int_node&#45;&#45;system.caches.network.ext_links9.int_node</title>
<path fill="none" stroke="#042d50" d="M145.34,-211.81C145.26,-211.82 145.18,-211.84 145.1,-211.85"/>
<polygon fill="#042d50" stroke="#042d50" points="154.12,-206.76 144.85,-211.89 155.3,-213.66 154.12,-206.76"/>
</g>
<!-- system.caches.network.ext_links5.int_node&#45;&#45;system.caches.network.ext_links1.int_node -->
<g id="edge30" class="edge">
<title>system.caches.network.ext_links5.int_node&#45;&#45;system.caches.network.ext_links1.int_node</title>
<path fill="none" stroke="#042d50" d="M127.61,-149.91C127.53,-149.94 127.45,-149.98 127.37,-150.01"/>
<polygon fill="#042d50" stroke="#042d50" points="134.88,-142.87 127.14,-150.11 137.7,-149.28 134.88,-142.87"/>
</g>
<!-- system.caches.network.ext_links5.int_node&#45;&#45;system.caches.network.ext_links2.int_node -->
<g id="edge31" class="edge">
<title>system.caches.network.ext_links5.int_node&#45;&#45;system.caches.network.ext_links2.int_node</title>
<path fill="none" stroke="#042d50" d="M171.29,-168.09C171.38,-168.15 171.48,-168.22 171.57,-168.28"/>
<polygon fill="#042d50" stroke="#042d50" points="163.29,-167.13 173.6,-169.58 167.07,-161.24 163.29,-167.13"/>
</g>
<!-- system.caches.network.ext_links5.int_node&#45;&#45;system.caches.network.ext_links3.int_node -->
<g id="edge32" class="edge">
<title>system.caches.network.ext_links5.int_node&#45;&#45;system.caches.network.ext_links3.int_node</title>
<path fill="none" stroke="#042d50" d="M160.89,-168.2C164.23,-173.83 168.49,-180.12 172.98,-186.16"/>
<polygon fill="#042d50" stroke="#042d50" points="170.29,-188.4 179.19,-194.15 175.82,-184.11 170.29,-188.4"/>
</g>
<!-- system.caches.network.ext_links5.int_node&#45;&#45;system.caches.network.ext_links6.int_node -->
<g id="edge33" class="edge">
<title>system.caches.network.ext_links5.int_node&#45;&#45;system.caches.network.ext_links6.int_node</title>
<path fill="none" stroke="#042d50" d="M181.8,-154.2C182,-154.23 182.17,-154.26 182.32,-154.28"/>
<polygon fill="#042d50" stroke="#042d50" points="172.28,-156.25 182.7,-154.34 173.36,-149.34 172.28,-156.25"/>
</g>
<!-- system.caches.network.ext_links5.int_node&#45;&#45;system.caches.network.ext_links7.int_node -->
<g id="edge34" class="edge">
<title>system.caches.network.ext_links5.int_node&#45;&#45;system.caches.network.ext_links7.int_node</title>
<path fill="none" stroke="#042d50" d="M149.23,-168.18C148.08,-180.07 147.92,-195.84 148.7,-209.36"/>
<polygon fill="#042d50" stroke="#042d50" points="145.23,-209.91 149.53,-219.59 152.21,-209.34 145.23,-209.91"/>
</g>
<!-- system.caches.network.ext_links5.int_node&#45;&#45;system.caches.network.ext_links8.int_node -->
<g id="edge35" class="edge">
<title>system.caches.network.ext_links5.int_node&#45;&#45;system.caches.network.ext_links8.int_node</title>
<path fill="none" stroke="#042d50" d="M130.29,-168.2C130.18,-168.34 130.07,-168.47 129.96,-168.6"/>
<polygon fill="#042d50" stroke="#042d50" points="128.61,-164.64 125.22,-174.67 134.13,-168.94 128.61,-164.64"/>
</g>
<!-- system.caches.network.ext_links5.int_node&#45;&#45;system.caches.network.ext_links9.int_node -->
<g id="edge36" class="edge">
<title>system.caches.network.ext_links5.int_node&#45;&#45;system.caches.network.ext_links9.int_node</title>
<path fill="none" stroke="#042d50" d="M140.75,-168.22C137.05,-175.8 133.35,-184.75 130.45,-193.11"/>
<polygon fill="#042d50" stroke="#042d50" points="127.03,-192.3 127.35,-202.89 133.71,-194.41 127.03,-192.3"/>
</g>
<!-- system.caches.network.ext_links6.int_node&#45;&#45;system.caches.network.ext_links1.int_node -->
<g id="edge37" class="edge">
<title>system.caches.network.ext_links6.int_node&#45;&#45;system.caches.network.ext_links1.int_node</title>
<path fill="none" stroke="#042d50" d="M155.82,-149.19C155.73,-149.19 155.63,-149.19 155.54,-149.2"/>
<polygon fill="#042d50" stroke="#042d50" points="156.66,-145.63 146.86,-149.66 157.03,-152.62 156.66,-145.63"/>
</g>
<!-- system.caches.network.ext_links6.int_node&#45;&#45;system.caches.network.ext_links2.int_node -->
<g id="edge38" class="edge">
<title>system.caches.network.ext_links6.int_node&#45;&#45;system.caches.network.ext_links2.int_node</title>
<path fill="none" stroke="#042d50" d="M188.25,-172.63C188.31,-172.71 188.38,-172.79 188.44,-172.86"/>
<polygon fill="#042d50" stroke="#042d50" points="179.39,-167.93 188.65,-173.09 184.62,-163.28 179.39,-167.93"/>
</g>
<!-- system.caches.network.ext_links6.int_node&#45;&#45;system.caches.network.ext_links3.int_node -->
<g id="edge39" class="edge">
<title>system.caches.network.ext_links6.int_node&#45;&#45;system.caches.network.ext_links3.int_node</title>
<path fill="none" stroke="#042d50" d="M182.12,-172.62C182.88,-176.38 183.9,-180.43 185.09,-184.44"/>
<polygon fill="#042d50" stroke="#042d50" points="181.86,-185.82 188.36,-194.19 188.5,-183.6 181.86,-185.82"/>
</g>
<!-- system.caches.network.ext_links6.int_node&#45;&#45;system.caches.network.ext_links4.int_node -->
<g id="edge40" class="edge">
<title>system.caches.network.ext_links6.int_node&#45;&#45;system.caches.network.ext_links4.int_node</title>
<path fill="none" stroke="#042d50" d="M173.48,-172.51C172.36,-176.94 171.39,-181.79 170.67,-186.58"/>
<polygon fill="#042d50" stroke="#042d50" points="167.16,-186.44 169.49,-196.78 174.11,-187.25 167.16,-186.44"/>
</g>
<!-- system.caches.network.ext_links6.int_node&#45;&#45;system.caches.network.ext_links7.int_node -->
<g id="edge41" class="edge">
<title>system.caches.network.ext_links6.int_node&#45;&#45;system.caches.network.ext_links7.int_node</title>
<path fill="none" stroke="#042d50" d="M176.99,-172.47C173.35,-183.39 168.63,-197.53 164.52,-209.86"/>
<polygon fill="#042d50" stroke="#042d50" points="161.09,-209.08 161.25,-219.68 167.73,-211.3 161.09,-209.08"/>
</g>
<!-- system.caches.network.ext_links6.int_node&#45;&#45;system.caches.network.ext_links8.int_node -->
<g id="edge42" class="edge">
<title>system.caches.network.ext_links6.int_node&#45;&#45;system.caches.network.ext_links8.int_node</title>
<path fill="none" stroke="#042d50" d="M155.78,-163C152.01,-165.02 148.14,-167.25 144.38,-169.55"/>
<polygon fill="#042d50" stroke="#042d50" points="142.41,-166.65 135.9,-175.01 146.2,-172.54 142.41,-166.65"/>
</g>
<!-- system.caches.network.ext_links6.int_node&#45;&#45;system.caches.network.ext_links9.int_node -->
<g id="edge43" class="edge">
<title>system.caches.network.ext_links6.int_node&#45;&#45;system.caches.network.ext_links9.int_node</title>
<path fill="none" stroke="#042d50" d="M159.25,-172.42C152.88,-179.2 146.21,-187.03 140.51,-194.41"/>
<polygon fill="#042d50" stroke="#042d50" points="137.46,-192.65 134.34,-202.78 143.09,-196.81 137.46,-192.65"/>
</g>
<!-- system.caches.network.ext_links7.int_node&#45;&#45;system.caches.network.ext_links1.int_node -->
<g id="edge44" class="edge">
<title>system.caches.network.ext_links7.int_node&#45;&#45;system.caches.network.ext_links1.int_node</title>
<path fill="none" stroke="#042d50" d="M153.25,-219.71C149.98,-209.51 144.62,-196.57 139.05,-185.15"/>
<polygon fill="#042d50" stroke="#042d50" points="142.05,-183.32 134.37,-176.02 135.82,-186.51 142.05,-183.32"/>
</g>
<!-- system.caches.network.ext_links7.int_node&#45;&#45;system.caches.network.ext_links2.int_node -->
<g id="edge45" class="edge">
<title>system.caches.network.ext_links7.int_node&#45;&#45;system.caches.network.ext_links2.int_node</title>
<path fill="none" stroke="#042d50" d="M177.4,-219.66C181.21,-215.13 185.04,-210.18 188.49,-205.32"/>
<polygon fill="#042d50" stroke="#042d50" points="191.54,-207.06 194.21,-196.8 185.73,-203.15 191.54,-207.06"/>
</g>
<!-- system.caches.network.ext_links7.int_node&#45;&#45;system.caches.network.ext_links3.int_node -->
<g id="edge46" class="edge">
<title>system.caches.network.ext_links7.int_node&#45;&#45;system.caches.network.ext_links3.int_node</title>
<path fill="none" stroke="#042d50" d="M182.28,-230.3C182.32,-230.27 182.36,-230.25 182.4,-230.22"/>
<polygon fill="#042d50" stroke="#042d50" points="175.62,-238.18 182.53,-230.15 172.12,-232.12 175.62,-238.18"/>
</g>
<!-- system.caches.network.ext_links7.int_node&#45;&#45;system.caches.network.ext_links4.int_node -->
<g id="edge47" class="edge">
<title>system.caches.network.ext_links7.int_node&#45;&#45;system.caches.network.ext_links4.int_node</title>
<path fill="none" stroke="#042d50" d="M174.26,-219.63C174.26,-219.57 174.27,-219.51 174.27,-219.45"/>
<polygon fill="#042d50" stroke="#042d50" points="177.27,-229.44 174.28,-219.27 170.28,-229.08 177.27,-229.44"/>
</g>
<!-- system.caches.network.ext_links7.int_node&#45;&#45;system.caches.network.ext_links5.int_node -->
<g id="edge48" class="edge">
<title>system.caches.network.ext_links7.int_node&#45;&#45;system.caches.network.ext_links5.int_node</title>
<path fill="none" stroke="#042d50" d="M160.72,-219.51C161.86,-207.62 162.03,-191.85 161.24,-178.33"/>
<polygon fill="#042d50" stroke="#042d50" points="164.71,-177.78 160.41,-168.09 157.73,-178.34 164.71,-177.78"/>
</g>
<!-- system.caches.network.ext_links7.int_node&#45;&#45;system.caches.network.ext_links8.int_node -->
<g id="edge49" class="edge">
<title>system.caches.network.ext_links7.int_node&#45;&#45;system.caches.network.ext_links8.int_node</title>
<path fill="none" stroke="#042d50" d="M140.03,-219.6C139.89,-219.43 139.74,-219.26 139.6,-219.09"/>
<polygon fill="#042d50" stroke="#042d50" points="142.27,-216.83 133.16,-211.42 136.91,-221.33 142.27,-216.83"/>
</g>
<!-- system.caches.network.ext_links7.int_node&#45;&#45;system.caches.network.ext_links9.int_node -->
<g id="edge50" class="edge">
<title>system.caches.network.ext_links7.int_node&#45;&#45;system.caches.network.ext_links9.int_node</title>
<path fill="none" stroke="#042d50" d="M135.24,-219.68C135.18,-219.66 135.12,-219.64 135.05,-219.63"/>
<polygon fill="#042d50" stroke="#042d50" points="145.42,-218.72 134.86,-219.58 143.65,-225.49 145.42,-218.72"/>
</g>
<!-- system.caches.network.ext_links8.int_node&#45;&#45;system.caches.network.ext_links1.int_node -->
<g id="edge51" class="edge">
<title>system.caches.network.ext_links8.int_node&#45;&#45;system.caches.network.ext_links1.int_node</title>
<path fill="none" stroke="#042d50" d="M125.58,-175.04C125.58,-174.98 125.58,-174.91 125.58,-174.84"/>
<polygon fill="#042d50" stroke="#042d50" points="128.77,-184.75 125.59,-174.64 121.77,-184.53 128.77,-184.75"/>
</g>
<!-- system.caches.network.ext_links8.int_node&#45;&#45;system.caches.network.ext_links2.int_node -->
<g id="edge52" class="edge">
<title>system.caches.network.ext_links8.int_node&#45;&#45;system.caches.network.ext_links2.int_node</title>
<path fill="none" stroke="#042d50" d="M145.21,-194.75C151.05,-194.06 157.31,-193.09 163.45,-191.94"/>
<polygon fill="#042d50" stroke="#042d50" points="164.49,-195.3 173.57,-189.85 163.07,-188.44 164.49,-195.3"/>
</g>
<!-- system.caches.network.ext_links8.int_node&#45;&#45;system.caches.network.ext_links3.int_node -->
<g id="edge53" class="edge">
<title>system.caches.network.ext_links8.int_node&#45;&#45;system.caches.network.ext_links3.int_node</title>
<path fill="none" stroke="#042d50" d="M144.88,-206.03C150.74,-207.68 157.05,-209.22 163.23,-210.53"/>
<polygon fill="#042d50" stroke="#042d50" points="162.95,-214.04 173.43,-212.48 164.26,-207.16 162.95,-214.04"/>
</g>
<!-- system.caches.network.ext_links8.int_node&#45;&#45;system.caches.network.ext_links4.int_node -->
<g id="edge54" class="edge">
<title>system.caches.network.ext_links8.int_node&#45;&#45;system.caches.network.ext_links4.int_node</title>
<path fill="none" stroke="#042d50" d="M144.97,-211.25C145.07,-211.29 145.17,-211.32 145.27,-211.36"/>
<polygon fill="#042d50" stroke="#042d50" points="134.99,-211.23 145.58,-211.48 137.45,-204.68 134.99,-211.23"/>
</g>
<!-- system.caches.network.ext_links8.int_node&#45;&#45;system.caches.network.ext_links5.int_node -->
<g id="edge55" class="edge">
<title>system.caches.network.ext_links8.int_node&#45;&#45;system.caches.network.ext_links5.int_node</title>
<path fill="none" stroke="#042d50" d="M142.28,-174.93C142.39,-174.8 142.5,-174.66 142.61,-174.53"/>
<polygon fill="#042d50" stroke="#042d50" points="143.96,-178.5 147.35,-168.46 138.44,-174.19 143.96,-178.5"/>
</g>
<!-- system.caches.network.ext_links8.int_node&#45;&#45;system.caches.network.ext_links6.int_node -->
<g id="edge56" class="edge">
<title>system.caches.network.ext_links8.int_node&#45;&#45;system.caches.network.ext_links6.int_node</title>
<path fill="none" stroke="#042d50" d="M145.09,-184.56C148.86,-182.54 152.73,-180.31 156.5,-178.01"/>
<polygon fill="#042d50" stroke="#042d50" points="158.46,-180.9 164.97,-172.55 154.67,-175.02 158.46,-180.9"/>
</g>
<!-- system.caches.network.ext_links8.int_node&#45;&#45;system.caches.network.ext_links9.int_node -->
<g id="edge57" class="edge">
<title>system.caches.network.ext_links8.int_node&#45;&#45;system.caches.network.ext_links9.int_node</title>
<path fill="none" stroke="#042d50" d="M123.34,-211.28C123.36,-211.36 123.39,-211.44 123.41,-211.52"/>
<polygon fill="#042d50" stroke="#042d50" points="117.24,-203.22 123.49,-211.77 123.94,-201.19 117.24,-203.22"/>
</g>
<!-- system.caches.network.ext_links9.int_node&#45;&#45;system.caches.network.ext_links1.int_node -->
<g id="edge58" class="edge">
<title>system.caches.network.ext_links9.int_node&#45;&#45;system.caches.network.ext_links1.int_node</title>
<path fill="none" stroke="#042d50" d="M130.56,-202.79C130.51,-197.54 130.11,-191.68 129.42,-185.98"/>
<polygon fill="#042d50" stroke="#042d50" points="132.87,-185.39 127.9,-176.04 125.95,-186.45 132.87,-185.39"/>
</g>
<!-- system.caches.network.ext_links9.int_node&#45;&#45;system.caches.network.ext_links2.int_node -->
<g id="edge59" class="edge">
<title>system.caches.network.ext_links9.int_node&#45;&#45;system.caches.network.ext_links2.int_node</title>
<path fill="none" stroke="#042d50" d="M153.44,-212.84C159.68,-209.71 166.34,-206.04 172.63,-202.26"/>
<polygon fill="#042d50" stroke="#042d50" points="174.88,-204.98 181.5,-196.71 171.17,-199.05 174.88,-204.98"/>
</g>
<!-- system.caches.network.ext_links9.int_node&#45;&#45;system.caches.network.ext_links3.int_node -->
<g id="edge60" class="edge">
<title>system.caches.network.ext_links9.int_node&#45;&#45;system.caches.network.ext_links3.int_node</title>
<path fill="none" stroke="#042d50" d="M153.45,-224.37C156.73,-224.14 160.11,-223.83 163.5,-223.45"/>
<polygon fill="#042d50" stroke="#042d50" points="164.1,-226.9 173.53,-222.08 163.15,-219.96 164.1,-226.9"/>
</g>
<!-- system.caches.network.ext_links9.int_node&#45;&#45;system.caches.network.ext_links4.int_node -->
<g id="edge61" class="edge">
<title>system.caches.network.ext_links9.int_node&#45;&#45;system.caches.network.ext_links4.int_node</title>
<path fill="none" stroke="#042d50" d="M153.54,-224.24C153.63,-224.23 153.71,-224.22 153.79,-224.2"/>
<polygon fill="#042d50" stroke="#042d50" points="144.76,-229.3 154.03,-224.16 143.58,-222.4 144.76,-229.3"/>
</g>
<!-- system.caches.network.ext_links9.int_node&#45;&#45;system.caches.network.ext_links5.int_node -->
<g id="edge62" class="edge">
<title>system.caches.network.ext_links9.int_node&#45;&#45;system.caches.network.ext_links5.int_node</title>
<path fill="none" stroke="#042d50" d="M140.25,-202.76C143.96,-195.19 147.65,-186.24 150.56,-177.87"/>
<polygon fill="#042d50" stroke="#042d50" points="153.97,-178.68 153.65,-168.09 147.3,-176.57 153.97,-178.68"/>
</g>
<!-- system.caches.network.ext_links9.int_node&#45;&#45;system.caches.network.ext_links6.int_node -->
<g id="edge63" class="edge">
<title>system.caches.network.ext_links9.int_node&#45;&#45;system.caches.network.ext_links6.int_node</title>
<path fill="none" stroke="#042d50" d="M150.05,-202.98C156.43,-196.2 163.1,-188.38 168.8,-181"/>
<polygon fill="#042d50" stroke="#042d50" points="171.85,-182.75 174.96,-172.63 166.21,-178.6 171.85,-182.75"/>
</g>
<!-- system.caches.network.ext_links9.int_node&#45;&#45;system.caches.network.ext_links7.int_node -->
<g id="edge64" class="edge">
<title>system.caches.network.ext_links9.int_node&#45;&#45;system.caches.network.ext_links7.int_node</title>
<path fill="none" stroke="#042d50" d="M146.27,-239.06C146.34,-239.08 146.4,-239.1 146.47,-239.11"/>
<polygon fill="#042d50" stroke="#042d50" points="136.1,-240.02 146.66,-239.16 137.87,-233.25 136.1,-240.02"/>
</g>
<!-- system.caches.dir_cntrl0 -->
<g id="node11" class="node">
<title>system.caches.dir_cntrl0</title>
<path fill="#e5bcd0" stroke="#000000" d="M12,-0.5C12,-0.5 60,-0.5 60,-0.5 66,-0.5 72,-6.5 72,-12.5 72,-12.5 72,-24.5 72,-24.5 72,-30.5 66,-36.5 60,-36.5 60,-36.5 12,-36.5 12,-36.5 6,-36.5 0,-30.5 0,-24.5 0,-24.5 0,-12.5 0,-12.5 0,-6.5 6,-0.5 12,-0.5"/>
<text text-anchor="middle" x="36" y="-14.8" font-family="Arial" font-size="14.00" fill="#000000">dir_cntrl0</text>
</g>
<!-- system.caches.dir_cntrl0&#45;&#45;system.caches.network.ext_links0.int_node -->
<g id="edge66" class="edge">
<title>system.caches.dir_cntrl0&#45;&#45;system.caches.network.ext_links0.int_node</title>
<path fill="none" stroke="#381526" d="M54.84,-44.94C57.31,-48.41 59.85,-51.96 62.32,-55.44"/>
<polygon fill="#381526" stroke="#381526" points="57.53,-42.68 48.87,-36.57 51.83,-46.74 57.53,-42.68"/>
<polygon fill="#381526" stroke="#381526" points="59.63,-57.69 68.29,-63.8 65.33,-53.63 59.63,-57.69"/>
</g>
<!-- system.caches.l2_cntrl0 -->
<g id="node12" class="node">
<title>system.caches.l2_cntrl0</title>
<path fill="#e5bcd0" stroke="#000000" d="M13.5,-133.35C13.5,-133.35 57.5,-133.35 57.5,-133.35 63.5,-133.35 69.5,-139.35 69.5,-145.35 69.5,-145.35 69.5,-157.35 69.5,-157.35 69.5,-163.35 63.5,-169.35 57.5,-169.35 57.5,-169.35 13.5,-169.35 13.5,-169.35 7.5,-169.35 1.5,-163.35 1.5,-157.35 1.5,-157.35 1.5,-145.35 1.5,-145.35 1.5,-139.35 7.5,-133.35 13.5,-133.35"/>
<text text-anchor="middle" x="35.5" y="-147.65" font-family="Arial" font-size="14.00" fill="#000000">l2_cntrl0</text>
</g>
<!-- system.caches.l2_cntrl0&#45;&#45;system.caches.network.ext_links1.int_node -->
<g id="edge67" class="edge">
<title>system.caches.l2_cntrl0&#45;&#45;system.caches.network.ext_links1.int_node</title>
<path fill="none" stroke="#381526" d="M79.93,-154.78C80.75,-154.85 81.57,-154.91 82.38,-154.97"/>
<polygon fill="#381526" stroke="#381526" points="80.01,-151.28 69.77,-154 79.47,-158.26 80.01,-151.28"/>
<polygon fill="#381526" stroke="#381526" points="82.5,-158.49 92.74,-155.77 83.04,-151.51 82.5,-158.49"/>
</g>
<!-- system.caches.l1_cntrl0 -->
<g id="node13" class="node">
<title>system.caches.l1_cntrl0</title>
<path fill="#e5bcd0" stroke="#000000" d="M263.45,-142.56C263.45,-142.56 307.45,-142.56 307.45,-142.56 313.45,-142.56 319.45,-148.56 319.45,-154.56 319.45,-154.56 319.45,-166.56 319.45,-166.56 319.45,-172.56 313.45,-178.56 307.45,-178.56 307.45,-178.56 263.45,-178.56 263.45,-178.56 257.45,-178.56 251.45,-172.56 251.45,-166.56 251.45,-166.56 251.45,-154.56 251.45,-154.56 251.45,-148.56 257.45,-142.56 263.45,-142.56"/>
<text text-anchor="middle" x="285.45" y="-156.86" font-family="Arial" font-size="14.00" fill="#000000">l1_cntrl0</text>
</g>
<!-- system.caches.l1_cntrl0&#45;&#45;system.caches.network.ext_links2.int_node -->
<g id="edge68" class="edge">
<title>system.caches.l1_cntrl0&#45;&#45;system.caches.network.ext_links2.int_node</title>
<path fill="none" stroke="#381526" d="M241.19,-169.93C240.06,-170.17 238.94,-170.41 237.82,-170.65"/>
<polygon fill="#381526" stroke="#381526" points="241.97,-173.34 251.03,-167.85 240.52,-166.5 241.97,-173.34"/>
<polygon fill="#381526" stroke="#381526" points="237.01,-167.24 227.96,-172.74 238.46,-174.09 237.01,-167.24"/>
</g>
<!-- system.caches.l1_cntrl1 -->
<g id="node14" class="node">
<title>system.caches.l1_cntrl1</title>
<path fill="#e5bcd0" stroke="#000000" d="M256.32,-226.07C256.32,-226.07 300.32,-226.07 300.32,-226.07 306.32,-226.07 312.32,-232.07 312.32,-238.07 312.32,-238.07 312.32,-250.07 312.32,-250.07 312.32,-256.07 306.32,-262.07 300.32,-262.07 300.32,-262.07 256.32,-262.07 256.32,-262.07 250.32,-262.07 244.32,-256.07 244.32,-250.07 244.32,-250.07 244.32,-238.07 244.32,-238.07 244.32,-232.07 250.32,-226.07 256.32,-226.07"/>
<text text-anchor="middle" x="278.32" y="-240.37" font-family="Arial" font-size="14.00" fill="#000000">l1_cntrl1</text>
</g>
<!-- system.caches.l1_cntrl1&#45;&#45;system.caches.network.ext_links3.int_node -->
<g id="edge69" class="edge">
<title>system.caches.l1_cntrl1&#45;&#45;system.caches.network.ext_links3.int_node</title>
<path fill="none" stroke="#381526" d="M234.66,-226.22C234.52,-226.16 234.37,-226.1 234.23,-226.05"/>
<polygon fill="#381526" stroke="#381526" points="233.42,-229.49 244,-230.04 236.07,-223.02 233.42,-229.49"/>
<polygon fill="#381526" stroke="#381526" points="238.55,-224.03 227.97,-223.48 235.9,-230.51 238.55,-224.03"/>
</g>
<!-- system.caches.l1_cntrl2 -->
<g id="node15" class="node">
<title>system.caches.l1_cntrl2</title>
<path fill="#e5bcd0" stroke="#000000" d="M201.66,-280.16C201.66,-280.16 245.66,-280.16 245.66,-280.16 251.66,-280.16 257.66,-286.16 257.66,-292.16 257.66,-292.16 257.66,-304.16 257.66,-304.16 257.66,-310.16 251.66,-316.16 245.66,-316.16 245.66,-316.16 201.66,-316.16 201.66,-316.16 195.66,-316.16 189.66,-310.16 189.66,-304.16 189.66,-304.16 189.66,-292.16 189.66,-292.16 189.66,-286.16 195.66,-280.16 201.66,-280.16"/>
<text text-anchor="middle" x="223.66" y="-294.46" font-family="Arial" font-size="14.00" fill="#000000">l1_cntrl2</text>
</g>
<!-- system.caches.l1_cntrl2&#45;&#45;system.caches.network.ext_links4.int_node -->
<g id="edge70" class="edge">
<title>system.caches.l1_cntrl2&#45;&#45;system.caches.network.ext_links4.int_node</title>
<path fill="none" stroke="#381526" d="M207.24,-271.43C201.39,-261.92 194.82,-251.21 188.98,-241.71"/>
<polygon fill="#381526" stroke="#381526" points="204.36,-273.43 212.58,-280.12 210.32,-269.77 204.36,-273.43"/>
<polygon fill="#381526" stroke="#381526" points="191.87,-239.73 183.65,-233.04 185.9,-243.39 191.87,-239.73"/>
</g>
<!-- system.caches.l1_cntrl3 -->
<g id="node16" class="node">
<title>system.caches.l1_cntrl3</title>
<path fill="#e5bcd0" stroke="#000000" d="M153.89,-45.94C153.89,-45.94 197.89,-45.94 197.89,-45.94 203.89,-45.94 209.89,-51.94 209.89,-57.94 209.89,-57.94 209.89,-69.94 209.89,-69.94 209.89,-75.94 203.89,-81.94 197.89,-81.94 197.89,-81.94 153.89,-81.94 153.89,-81.94 147.89,-81.94 141.89,-75.94 141.89,-69.94 141.89,-69.94 141.89,-57.94 141.89,-57.94 141.89,-51.94 147.89,-45.94 153.89,-45.94"/>
<text text-anchor="middle" x="175.89" y="-60.24" font-family="Arial" font-size="14.00" fill="#000000">l1_cntrl3</text>
</g>
<!-- system.caches.l1_cntrl3&#45;&#45;system.caches.network.ext_links5.int_node -->
<g id="edge71" class="edge">
<title>system.caches.l1_cntrl3&#45;&#45;system.caches.network.ext_links5.int_node</title>
<path fill="none" stroke="#381526" d="M168.96,-92.09C166.61,-101.66 163.97,-112.35 161.62,-121.92"/>
<polygon fill="#381526" stroke="#381526" points="172.41,-92.73 171.4,-82.19 165.61,-91.06 172.41,-92.73"/>
<polygon fill="#381526" stroke="#381526" points="158.19,-121.2 159.2,-131.75 164.99,-122.88 158.19,-121.2"/>
</g>
<!-- system.caches.l1_cntrl4 -->
<g id="node17" class="node">
<title>system.caches.l1_cntrl4</title>
<path fill="#e5bcd0" stroke="#000000" d="M223.04,-75.3C223.04,-75.3 267.04,-75.3 267.04,-75.3 273.04,-75.3 279.04,-81.3 279.04,-87.3 279.04,-87.3 279.04,-99.3 279.04,-99.3 279.04,-105.3 273.04,-111.3 267.04,-111.3 267.04,-111.3 223.04,-111.3 223.04,-111.3 217.04,-111.3 211.04,-105.3 211.04,-99.3 211.04,-99.3 211.04,-87.3 211.04,-87.3 211.04,-81.3 217.04,-75.3 223.04,-75.3"/>
<text text-anchor="middle" x="245.04" y="-89.6" font-family="Arial" font-size="14.00" fill="#000000">l1_cntrl4</text>
</g>
<!-- system.caches.l1_cntrl4&#45;&#45;system.caches.network.ext_links6.int_node -->
<g id="edge72" class="edge">
<title>system.caches.l1_cntrl4&#45;&#45;system.caches.network.ext_links6.int_node</title>
<path fill="none" stroke="#381526" d="M219.17,-118.78C215.77,-122.14 212.27,-125.58 208.87,-128.93"/>
<polygon fill="#381526" stroke="#381526" points="221.76,-121.14 226.43,-111.63 216.85,-116.15 221.76,-121.14"/>
<polygon fill="#381526" stroke="#381526" points="206.28,-126.56 201.61,-136.07 211.19,-131.55 206.28,-126.56"/>
</g>
<!-- system.caches.l1_cntrl5 -->
<g id="node18" class="node">
<title>system.caches.l1_cntrl5</title>
<path fill="#e5bcd0" stroke="#000000" d="M127.52,-303.74C127.52,-303.74 171.52,-303.74 171.52,-303.74 177.52,-303.74 183.52,-309.74 183.52,-315.74 183.52,-315.74 183.52,-327.74 183.52,-327.74 183.52,-333.74 177.52,-339.74 171.52,-339.74 171.52,-339.74 127.52,-339.74 127.52,-339.74 121.52,-339.74 115.52,-333.74 115.52,-327.74 115.52,-327.74 115.52,-315.74 115.52,-315.74 115.52,-309.74 121.52,-303.74 127.52,-303.74"/>
<text text-anchor="middle" x="149.52" y="-318.04" font-family="Arial" font-size="14.00" fill="#000000">l1_cntrl5</text>
</g>
<!-- system.caches.l1_cntrl5&#45;&#45;system.caches.network.ext_links7.int_node -->
<g id="edge73" class="edge">
<title>system.caches.l1_cntrl5&#45;&#45;system.caches.network.ext_links7.int_node</title>
<path fill="none" stroke="#381526" d="M151.46,-293.24C152.06,-284.46 152.71,-274.81 153.31,-266.05"/>
<polygon fill="#381526" stroke="#381526" points="147.95,-293.3 150.76,-303.51 154.93,-293.77 147.95,-293.3"/>
<polygon fill="#381526" stroke="#381526" points="156.81,-266.13 153.99,-255.92 149.82,-265.66 156.81,-266.13"/>
</g>
<!-- system.caches.l1_cntrl6 -->
<g id="node19" class="node">
<title>system.caches.l1_cntrl6</title>
<path fill="#e5bcd0" stroke="#000000" d="M12.75,-209.61C12.75,-209.61 56.75,-209.61 56.75,-209.61 62.75,-209.61 68.75,-215.61 68.75,-221.61 68.75,-221.61 68.75,-233.61 68.75,-233.61 68.75,-239.61 62.75,-245.61 56.75,-245.61 56.75,-245.61 12.75,-245.61 12.75,-245.61 6.75,-245.61 0.75,-239.61 0.75,-233.61 0.75,-233.61 0.75,-221.61 0.75,-221.61 0.75,-215.61 6.75,-209.61 12.75,-209.61"/>
<text text-anchor="middle" x="34.75" y="-223.91" font-family="Arial" font-size="14.00" fill="#000000">l1_cntrl6</text>
</g>
<!-- system.caches.l1_cntrl6&#45;&#45;system.caches.network.ext_links8.int_node -->
<g id="edge74" class="edge">
<title>system.caches.l1_cntrl6&#45;&#45;system.caches.network.ext_links8.int_node</title>
<path fill="none" stroke="#381526" d="M78.29,-209.56C79.35,-209.12 80.41,-208.69 81.47,-208.25"/>
<polygon fill="#381526" stroke="#381526" points="76.93,-206.34 69.03,-213.4 79.61,-212.81 76.93,-206.34"/>
<polygon fill="#381526" stroke="#381526" points="82.86,-211.46 90.76,-204.4 80.18,-204.99 82.86,-211.46"/>
</g>
<!-- system.caches.l1_cntrl7 -->
<g id="node20" class="node">
<title>system.caches.l1_cntrl7</title>
<path fill="#e5bcd0" stroke="#000000" d="M52.71,-273C52.71,-273 96.71,-273 96.71,-273 102.71,-273 108.71,-279 108.71,-285 108.71,-285 108.71,-297 108.71,-297 108.71,-303 102.71,-309 96.71,-309 96.71,-309 52.71,-309 52.71,-309 46.71,-309 40.71,-303 40.71,-297 40.71,-297 40.71,-285 40.71,-285 40.71,-279 46.71,-273 52.71,-273"/>
<text text-anchor="middle" x="74.71" y="-287.3" font-family="Arial" font-size="14.00" fill="#000000">l1_cntrl7</text>
</g>
<!-- system.caches.l1_cntrl7&#45;&#45;system.caches.network.ext_links9.int_node -->
<g id="edge75" class="edge">
<title>system.caches.l1_cntrl7&#45;&#45;system.caches.network.ext_links9.int_node</title>
<path fill="none" stroke="#381526" d="M94.02,-264.79C98.24,-259.07 102.7,-253.02 106.92,-247.29"/>
<polygon fill="#381526" stroke="#381526" points="91.11,-262.85 87.99,-272.98 96.74,-267.01 91.11,-262.85"/>
<polygon fill="#381526" stroke="#381526" points="109.75,-249.35 112.87,-239.22 104.12,-245.2 109.75,-249.35"/>
</g>
</g>
</svg>
